<svg id="Layer_1" data-name="Layer 1" xmlns="http://www.w3.org/2000/svg" viewBox="0 0 526.53 318.48"><defs><style>.cls-1{fill:#1d264f;}.cls-2{font-size:23.68px;font-family:Avenir-Black, Avenir;font-weight:800;letter-spacing:0.08em;}.cls-2,.cls-5{fill:#33669a;}.cls-3{fill:#9fcb4f;}.cls-4{fill:#60a5d5;}</style></defs><title>Lekkos-logo</title><path class="cls-1" d="M109.8,119.54h32.64a83.45,83.45,0,0,1,11.44.8,31.28,31.28,0,0,1,10.32,3.22,19.69,19.69,0,0,1,7.42,6.73q2.85,4.34,2.85,11.5a18.34,18.34,0,0,1-4.15,12.31,22.8,22.8,0,0,1-10.94,7v.25a25,25,0,0,1,7.85,2.41,21,21,0,0,1,6.06,4.58,19.53,19.53,0,0,1,3.9,6.49,22.94,22.94,0,0,1,1.36,7.91,21,21,0,0,1-3,11.56,23.36,23.36,0,0,1-7.67,7.49,33.82,33.82,0,0,1-10.57,4.08,56.89,56.89,0,0,1-11.68,1.23H109.8Zm19.29,35h14a19.69,19.69,0,0,0,4.39-.49,12.15,12.15,0,0,0,3.89-1.61,8.38,8.38,0,0,0,2.79-3,8.9,8.9,0,0,0,1.05-4.45,7.8,7.8,0,0,0-4.21-7.3,14.43,14.43,0,0,0-4.2-1.42,25.13,25.13,0,0,0-4.58-.43h-13.1Zm0,36.23H146.4a21.32,21.32,0,0,0,4.51-.49,11.75,11.75,0,0,0,4.14-1.74,9.71,9.71,0,0,0,3-3.21,9.23,9.23,0,0,0,1.18-4.82,7.75,7.75,0,0,0-1.55-5,9.82,9.82,0,0,0-3.89-2.91,20.56,20.56,0,0,0-5.07-1.36,39.05,39.05,0,0,0-5.07-.37H129.09Z"/><path class="cls-1" d="M199,117.48h19.29v89.6H199Z"/><path class="cls-1" d="M240.37,163.31a49.38,49.38,0,0,1,3.53-19,41.7,41.7,0,0,1,9.83-14.53,43.18,43.18,0,0,1,15-9.21,57.19,57.19,0,0,1,37.84,0,43.27,43.27,0,0,1,15,9.21,41.83,41.83,0,0,1,9.83,14.53,53.25,53.25,0,0,1,0,38.08,41.83,41.83,0,0,1-9.83,14.53,43.27,43.27,0,0,1-15,9.21,57.19,57.19,0,0,1-37.84,0,43.18,43.18,0,0,1-15-9.21,41.7,41.7,0,0,1-9.83-14.53A49.42,49.42,0,0,1,240.37,163.31Zm20,0a32,32,0,0,0,1.92,11.31,26,26,0,0,0,5.5,8.91,25.15,25.15,0,0,0,8.6,5.87,30.86,30.86,0,0,0,22.38,0,25.11,25.11,0,0,0,8.59-5.87,25.8,25.8,0,0,0,5.5-8.91,34.09,34.09,0,0,0,0-22.56,25.78,25.78,0,0,0-5.5-9,25.11,25.11,0,0,0-8.59-5.87,30.86,30.86,0,0,0-22.38,0,25.15,25.15,0,0,0-8.6,5.87,25.93,25.93,0,0,0-5.5,9A32.18,32.18,0,0,0,260.4,163.31Z"/><path class="cls-1" d="M400.5,140.93a13.76,13.76,0,0,0-6.37-4.39,22.75,22.75,0,0,0-7.6-1.42,19.9,19.9,0,0,0-4.33.49,16.53,16.53,0,0,0-4.2,1.55,9.16,9.16,0,0,0-3.22,2.78,7.07,7.07,0,0,0-1.23,4.2,7,7,0,0,0,3,6.06,28.17,28.17,0,0,0,7.48,3.59q4.51,1.49,9.71,3a40.23,40.23,0,0,1,9.71,4.2,23.06,23.06,0,0,1,7.48,7.3q3,4.58,3,12.24a28.15,28.15,0,0,1-2.72,12.73,25.92,25.92,0,0,1-7.36,9A31.43,31.43,0,0,1,393,207.58a47.43,47.43,0,0,1-12.92,1.73,46.9,46.9,0,0,1-15.83-2.6,39.55,39.55,0,0,1-13.6-8.41l13.72-15.08a19.94,19.94,0,0,0,7.49,6.12A21.11,21.11,0,0,0,386,191a15.55,15.55,0,0,0,4.33-1.67,9.32,9.32,0,0,0,3.09-2.85,7.1,7.1,0,0,0,1.18-4.08,7.39,7.39,0,0,0-3-6.24,27.78,27.78,0,0,0-7.61-3.9Q379.36,170.6,374,169a44.39,44.39,0,0,1-9.89-4.33,23.79,23.79,0,0,1-7.61-7.17q-3-4.45-3-11.75a26.2,26.2,0,0,1,2.79-12.36,26.73,26.73,0,0,1,7.41-8.91,32.45,32.45,0,0,1,10.7-5.38,44,44,0,0,1,12.49-1.79,49.08,49.08,0,0,1,14.34,2.1,33.28,33.28,0,0,1,12.49,7Z"/><text class="cls-2" transform="translate(104.63 249.06)">FUNCTIONAL MEDICINE</text><circle class="cls-3" cx="309.29" cy="79.45" r="17.05"/><circle class="cls-4" cx="262.97" cy="79.45" r="17.05"/><circle class="cls-5" cx="214.36" cy="79.45" r="17.05"/></svg>